# xmcd
#
# Track frame offsets:
#	150
#	12146
#	23289
#	37971
#	47863
#	59751
#	74455
#	85256
#	99716
#	113488
#	128632
#	141650
#	154078
#	165626
#	181185
#	190937
#	205229
#	218934
#	230287
#	242111
#
# Disc length: 3427 seconds
#
# Revision: 0
# Processed by: cddbd v1.5.2PL0 Copyright (c) Steve Scherf et al.
# Submitted via: EZCDAudioConverter 3.1.0.1
#
DISCID=130d6114
DTITLE=COUNTRY HEARTBREAKERS - 20 Country Memories For The Broken Hearted
DYEAR=2005
DGENRE=country
TTITLE0=Hank Williams - Take These Chains from My Heart 
TTITLE1=Roger Miller - Husbands and Wives 
TTITLE2=Johnny Paycheck - A Good Year for the Roses 
TTITLE3=Ray Price - Make the World Go Away 
TTITLE4=Skeeter Davis - The End of the World 
TTITLE5=Don Gibson - Sweet Dreams 
TTITLE6=Charlie Rich - There Won't Be Anymore 
TTITLE7=Willie Nelson - Will You Remember 
TTITLE8=Crystal Gayle and Charlie Louvin - Just Beyond the Pain 
TTITLE9=Lee Greenwood - Going, Going, Gone 
TTITLE10=Wanda Jackson - Raining in My Heart 
TTITLE11=Johnny Rodriguez - We're Over 
TTITLE12=David Frizzell - I Never Go Around Mirrors (I've Got a Heartache to H
TTITLE12=ide) 
TTITLE13=Lacy J Dalton - Everybody Makes Mistakes 
TTITLE14=Claude Gray - I'll Just Have Another Cup of Coffee Then I'll Go 
TTITLE15=Stonewall Jackson - Wedding Bells 
TTITLE16=Conway Twitty - Baby's Gone 
TTITLE17=Connie Smith - Just One Time 
TTITLE18=Wilma Burgess - Misty Blue 
TTITLE19=Porter Wagoner - The Cold, Hard Facts of Life 
EXTD=
EXTT0=
EXTT1=
EXTT2=
EXTT3=
EXTT4=
EXTT5=
EXTT6=
EXTT7=
EXTT8=
EXTT9=
EXTT10=
EXTT11=
EXTT12=
EXTT13=
EXTT14=
EXTT15=
EXTT16=
EXTT17=
EXTT18=
EXTT19=
PLAYORDER=
